<svg xmlns="http://www.w3.org/2000/svg" width="269" height="269">
 <g>
  <title>Layer 1</title>
  <path d="m253.200012 1h-237.500012c-8.09998 0 -14.7 6.6 -14.7 14.7v237.400006c0 8.1 6.6 14.7 14.7 14.699982h127.8v-103.299988h-34.799988v-40.29998h34.799988v-29.600021c0 -34.5 21.1 -53.2 51.8 -53.199997c14.699982 0 27.4 1.1 31.1 1.60001v35.999996l-21.299988 0c-16.700012 0 -20 7.9 -20 19.600014v25.699997h39.899994l-5.200012 40.299988h-34.699982v103.399994h68c8.100006 0 14.7 -6.6 14.7 -14.699982v-237.600019c0.100006 -8.1 -6.5 -14.7 -14.6 -14.7" fill="#ffffff"/>
 </g>
</svg>
